<svg width="40" height="40" viewBox="0 0 40 40" fill="none" xmlns="http://www.w3.org/2000/svg">
<path d="M5.6 6H34.4C36.3854 6 38 7.56975 38 9.5V11.5986H2V9.5C2 7.56975 3.6146 6 5.6 6Z" fill="url(#paint0_linear_7488_139786)"/>
<path fill-rule="evenodd" clip-rule="evenodd" d="M2 15.7986V30.5C2 32.4303 3.6146 34 5.6 34H34.4C36.3854 34 38 32.4303 38 30.5V15.7986H2ZM18.798 28.8686C19.6419 29.6891 20.7865 30.15 21.98 30.15C22.9568 30.1478 23.9057 29.8329 24.68 29.254C23.5928 28.456 22.88 27.2013 22.88 25.775C22.88 24.3487 23.5928 23.094 24.68 22.296C23.9057 21.7171 22.9568 21.4022 21.98 21.4C20.7865 21.4 19.6419 21.8609 18.798 22.6814C17.9541 23.5019 17.48 24.6147 17.48 25.775C17.48 26.9353 17.9541 28.0481 18.798 28.8686ZM25.998 28.8686C26.8419 29.6891 27.9865 30.15 29.18 30.15C30.3735 30.15 31.5181 29.6891 32.362 28.8686C33.2059 28.0481 33.68 26.9353 33.68 25.775C33.68 24.6147 33.2059 23.5019 32.362 22.6814C31.5181 21.8609 30.3735 21.4 29.18 21.4C27.9865 21.4 26.8419 21.8609 25.998 22.6814C25.1541 23.5019 24.68 24.6147 24.68 25.775C24.68 26.9353 25.1541 28.0481 25.998 28.8686Z" fill="url(#paint1_linear_7488_139786)"/>
<defs>
<linearGradient id="paint0_linear_7488_139786" x1="0.901163" y1="20" x2="38.8895" y2="20" gradientUnits="userSpaceOnUse">
<stop stop-color="#4DB663"/>
<stop offset="1" stop-color="#6BD681"/>
</linearGradient>
<linearGradient id="paint1_linear_7488_139786" x1="0.901163" y1="20" x2="38.8895" y2="20" gradientUnits="userSpaceOnUse">
<stop stop-color="#4DB663"/>
<stop offset="1" stop-color="#6BD681"/>
</linearGradient>
</defs>
</svg>
