<svg width="24" height="24" viewBox="0 0 24 24" fill="none" xmlns="http://www.w3.org/2000/svg">
<path fill-rule="evenodd" clip-rule="evenodd" d="M18.6667 6C18.2933 6 17.96 6.14667 17.72 6.38667L9.33333 14.7867L6.28 11.72C6.04 11.48 5.70667 11.3333 5.33333 11.3333C4.6 11.3333 4 11.9333 4 12.6667C4 13.04 4.14667 13.3733 4.38667 13.6133L8.38667 17.6133C8.62667 17.8533 8.96 18 9.33333 18C9.70667 18 10.04 17.8533 10.28 17.6133L19.6133 8.28C19.8533 8.04 20 7.70667 20 7.33333C20 6.6 19.4 6 18.6667 6Z" fill="#4DB663"/>
</svg>
