<svg width="197" height="156" viewBox="0 0 197 156" fill="none" xmlns="http://www.w3.org/2000/svg">
<path d="M158.807 103.026L73.6123 141.792C71.8101 142.612 71.0054 144.755 71.824 146.554L74.8008 153.096C75.6194 154.895 77.7637 155.696 79.5659 154.876L164.761 116.11C166.563 115.29 167.368 113.147 166.549 111.348L163.572 104.806C162.754 103.007 160.609 102.206 158.807 103.026ZM142.146 31.6414C136.719 34.1108 134.316 40.5098 136.781 45.9275C137.442 47.379 138.383 48.5792 139.524 49.5654L128.734 65.1848C126.436 68.5007 121.877 69.292 118.603 66.9321L88.647 45.3737C90.0197 42.5776 90.2253 39.2266 88.83 36.16C86.3648 30.7424 79.9617 28.3504 74.5346 30.8199C69.1075 33.2893 66.7044 39.6883 69.1696 45.106C70.565 48.1726 73.2265 50.2189 76.2364 51.0208L72.8109 87.7687C72.4394 91.7873 68.8273 94.7142 64.838 94.2591L45.994 92.1238C45.9888 90.6455 45.7137 89.1174 45.0533 87.6658C42.5881 82.2482 36.1849 79.8562 30.7579 82.3257C25.3308 84.7951 22.9072 91.2034 25.3724 96.6211C27.8376 102.039 34.2407 104.431 39.6678 101.961C40.2003 101.719 40.6955 101.395 41.1703 101.08L73.9122 133.759L152.554 97.9751L149.425 51.8216C149.974 51.6704 150.544 51.5099 151.077 51.2676C156.504 48.7982 158.907 42.3992 156.442 36.9816C153.976 31.5639 147.573 29.172 142.146 31.6414Z" fill="url(#paint0_linear_7711_144650)" fill-opacity="0.72"/>
<defs>
<linearGradient id="paint0_linear_7711_144650" x1="26.5" y1="39" x2="313" y2="252.5" gradientUnits="userSpaceOnUse">
<stop stop-color="white"/>
<stop offset="1" stop-color="white" stop-opacity="0"/>
<stop offset="1" stop-color="#5AC470"/>
<stop offset="1" stop-color="#78E28E"/>
</linearGradient>
</defs>
</svg>
