<svg width="40" height="40" viewBox="0 0 40 40" fill="none" xmlns="http://www.w3.org/2000/svg">
<path d="M3 7.25C3 6.12283 3.4507 5.04183 4.25293 4.2448C5.05517 3.44777 6.14324 3 7.27778 3H28.2778C29.4123 3 30.5004 3.44777 31.3026 4.2448C32.1049 5.04183 32.5556 6.12283 32.5556 7.25V9.19418C34.0321 9.2922 35.416 9.94412 36.4269 11.0179C37.4378 12.0917 38.0001 13.507 38 14.9773V31.2045C38 32.7416 37.3854 34.2157 36.2915 35.3026C35.1975 36.3894 33.7138 37 32.1667 37H8.83956C7.29246 37 5.80873 36.3894 4.71477 35.3026C3.62081 34.2157 3.00622 32.7416 3.00622 31.2045V14.9773H3V7.63636H3.01711C3.00559 7.5079 2.99988 7.37898 3 7.25ZM30.2222 7.25C30.2222 6.18364 29.3511 5.31818 28.2778 5.31818H7.27778C6.76208 5.31818 6.2675 5.52171 5.90285 5.884C5.5382 6.24628 5.33334 6.73765 5.33334 7.25C5.33334 7.76235 5.5382 8.25372 5.90285 8.616C6.2675 8.97829 6.76208 9.18182 7.27778 9.18182H30.2222V7.25ZM27.5 23.0909C27.1906 23.0909 26.8938 23.213 26.675 23.4304C26.4562 23.6478 26.3333 23.9426 26.3333 24.25C26.3333 24.5574 26.4562 24.8522 26.675 25.0696C26.8938 25.287 27.1906 25.4091 27.5 25.4091H31.3889C31.6983 25.4091 31.9951 25.287 32.2138 25.0696C32.4326 24.8522 32.5556 24.5574 32.5556 24.25C32.5556 23.9426 32.4326 23.6478 32.2138 23.4304C31.9951 23.213 31.6983 23.0909 31.3889 23.0909H27.5Z" fill="url(#paint0_linear_7488_139794)"/>
<defs>
<linearGradient id="paint0_linear_7488_139794" x1="1.93169" y1="20" x2="38.8648" y2="20" gradientUnits="userSpaceOnUse">
<stop stop-color="#4DB663"/>
<stop offset="1" stop-color="#6BD681"/>
</linearGradient>
</defs>
</svg>
